# xmcd CD database file
#
# Track frame offsets:
#	150
#	18232
#	35425
#	50357
#	65075
#	77772
#	92302
#	109625
#	129925
#	148085
#	162585
#	178510
#	195572
#	212320
#	229510
#	245270
#	258252
#	273987
#	286182
#
# Disc length: 4072 seconds
#
# Revision: 0
# Processed by: cddbd v1.5PL3 Copyright (c) Steve Scherf et al.
# Submitted via: CDex 1.60beta1
#
DISCID=f70fe613
DTITLE=Bruno's Salon Band - Lucky Day
DYEAR=1900
DGENRE=Jazz
TTITLE0=Lucky Day
TTITLE1=Honourable Hazard
TTITLE2=Blue Orchards
TTITLE3=Birmingham Black Bottom
TTITLE4=A Blues Serenade
TTITLE5=Idolizing
TTITLE6=I'm The Last Of The Red Hot Mamas
TTITLE7=Puttin' On The Ritz
TTITLE8=Way Way Back
TTITLE9=Eccentric
TTITLE10=Sentimental Gentleman From Georgia
TTITLE11=When Somebody Thinks You're Wonderful
TTITLE12=So In Love
TTITLE13=Doodle Doo Doo
TTITLE14=Ding Dong Blues
TTITLE15=Sleepy Time Gal
TTITLE16=Ye Olde Clock Cafe
TTITLE17=If You Knew Susie
TTITLE18=The Chant
EXTD=
EXTT0=
EXTT1=
EXTT2=
EXTT3=
EXTT4=
EXTT5=
EXTT6=
EXTT7=
EXTT8=
EXTT9=
EXTT10=
EXTT11=
EXTT12=
EXTT13=
EXTT14=
EXTT15=
EXTT16=
EXTT17=
EXTT18=
PLAYORDER=
